<?xml version="1.0" encoding="UTF-8" standalone="no"?>
<!DOCTYPE svg PUBLIC "-//W3C//DTD SVG 20010904//EN" "http://www.w3.org/TR/2001/REC-SVG-20010904/DTD/svg10.dtd">
<svg version="1.0" xmlns="http://www.w3.org/2000/svg" width="3775.000000pt" height="1722.000000pt" viewBox="0 0 3775.000000 1722.000000" preserveAspectRatio="xMidYMid meet">
<metadata>
Created by potrace 1.16, written by Peter Selinger 2001-2019
</metadata>
<g transform="translate(0.000000,1722.000000) scale(0.100000,-0.100000)" fill="#ffffff" stroke="none">
<path d="M10886 15188 c-4 -29 -294 -2408 -646 -5287 -352 -2879 -640 -5245 -640 -5258 l0 -23 863 0 864 0 48 393 c26 215 141 1153 254 2082 l207 1690 405 357 c222 196 409 357 415 357 6 1 690 -1097 1520 -2439 l1509 -2439 1079 -1 c859 0 1077 3 1073 13 -3 6 -858 1351 -1900 2988 l-1895 2977 2426 2268 c1333 1248 2450 2292 2481 2321 l56 52 -1111 1 -1111 0 -2249 -2132 c-1823 -1729 -2275 -2162 -2383 -2286 -73 -84 -135 -151 -137 -149 -2 2 23 116 56 253 l60 249 245 2013 c135 1107 245 2022 245 2033 0 19 -17 19 -864 19 l-864 0 -6 -52z"/>
<path d="M20906 15188 c-4 -29 -294 -2408 -646 -5287 -352 -2879 -640 -5245 -640 -5258 l0 -23 878 0 878 0 642 5257 c354 2892 645 5282 649 5311 l6 52 -880 0 -881 0 -6 -52z"/>
<path d="M25606 15188 c-4 -29 -294 -2408 -646 -5287 -352 -2879 -640 -5245 -640 -5258 l0 -23 850 0 c596 0 850 3 850 11 0 6 104 829 230 1829 127 1000 230 1823 230 1829 0 8 232 11 844 11 l844 0 962 -1832 c530 -1008 966 -1836 969 -1841 4 -4 455 -6 1003 -5 l996 3 -1039 2040 c-571 1122 -1038 2042 -1039 2045 0 3 47 29 105 58 705 358 1223 900 1586 1657 188 394 319 825 384 1263 23 157 45 477 45 657 -1 794 -254 1452 -750 1945 -560 558 -1363 874 -2385 940 -99 6 -777 10 -1776 10 l-1617 0 -6 -52z m3419 -1607 c589 -88 908 -307 1144 -786 138 -279 189 -519 178 -844 -7 -222 -39 -394 -113 -618 -105 -316 -236 -539 -445 -757 -280 -293 -619 -486 -994 -565 -261 -55 -224 -54 -1202 -58 -747 -3 -913 -2 -914 9 0 7 100 829 223 1826 l223 1813 910 -4 c637 -3 934 -8 990 -16z"/>
<path d="M35386 15188 c-4 -29 -294 -2408 -646 -5287 -352 -2879 -640 -5245 -640 -5258 l0 -23 878 0 878 0 642 5257 c354 2892 645 5282 649 5311 l6 52 -880 0 -881 0 -6 -52z"/>
<path d="M2940 14550 c0 -14 -168 -1328 -175 -1367 l-6 -33 3465 0 3466 0 4 23 c3 12 44 317 91 677 47 360 88 667 91 683 l6 27 -3471 0 c-2320 0 -3471 -3 -3471 -10z"/>
<path d="M146 10848 c-5 -23 -146 -1333 -146 -1356 0 -9 968 -12 4604 -12 l4604 0 6 38 c6 36 186 1343 186 1349 0 2 -2081 3 -4625 3 l-4625 0 -4 -22z"/>
<path d="M4195 7458 c-2 -7 -55 -322 -118 -700 l-114 -688 2443 0 2444 0 5 23 c7 35 175 1330 175 1355 l0 22 -2415 0 c-1924 0 -2416 -3 -2420 -12z"/>
</g>
</svg>